<svg width="17" height="14" viewBox="0 0 17 14" fill="none" xmlns="http://www.w3.org/2000/svg">
<g id="Group">
<path id="Vector" d="M7.9838 4.43213L10.3048 6.75319L10.3159 6.63161C10.3159 5.41212 9.32486 4.42108 8.10537 4.42108L7.9838 4.43213Z" fill="#677294"/>
<path id="Vector_2" d="M8.10523 2.94738C10.1389 2.94738 11.7895 4.59792 11.7895 6.63161C11.7895 7.10687 11.6937 7.56003 11.5279 7.97633L13.6832 10.1316C14.7958 9.20318 15.6726 8.00213 16.2142 6.63161C14.9358 3.39688 11.7932 1.10529 8.10527 1.10529C7.07368 1.10529 6.08633 1.28948 5.16896 1.62106L6.76054 3.20895C7.17681 3.04685 7.62997 2.94738 8.10523 2.94738Z" fill="#677294"/>
<path id="Vector_3" d="M0.736831 0.939474L2.41683 2.61948L2.75211 2.95475C1.53632 3.90528 0.574737 5.16898 0 6.63159C1.27475 9.86631 4.42106 12.1579 8.10528 12.1579C9.2474 12.1579 10.3379 11.9369 11.3363 11.5353L11.6495 11.8484L13.7974 14L14.7369 13.0642L1.67631 0L0.736831 0.939474ZM4.81159 5.01054L5.95002 6.14896C5.91686 6.3074 5.89475 6.4658 5.89475 6.63159C5.89475 7.85107 6.88579 8.84211 8.10528 8.84211C8.27107 8.84211 8.4295 8.82001 8.58424 8.78685L9.72266 9.92527C9.23265 10.1684 8.68741 10.3158 8.10528 10.3158C6.0716 10.3158 4.42106 8.66527 4.42106 6.63159C4.42106 6.04949 4.56844 5.50422 4.81159 5.01054Z" fill="#677294"/>
</g>
</svg>
